<?xml version="1.0" encoding="UTF-8"?>
<svg xmlns="http://www.w3.org/2000/svg" viewBox="0 0 1080 245.6" fill="#ffffff">
  <g>
    <path d="M152.2,26.9c.1-.7.2-1.4.4-2.1h-62.6l-28.9,162.5,60.1.4c2.8,0,3.5-1.5,3.9-3.8l27-156.9Z"/>
    <path d="M679.6,26.9c.1-.7.2-1.4.4-2.1h-62.6l-28.9,162.5,60.1.4c2.8,0,3.5-1.5,3.9-3.8l27-156.9Z"/>
    <path d="M209.6,187.6c-15.7,0-31.4,0-47.1,0-12.6,0-22-10.1-20.1-22.5,2.6-17.3,5.8-34.6,8.9-51.8,1.5-8.8,3.3-17.6,4.8-26.4,2.6-15.7,15.8-27.1,31.7-27.1,29.8,0,59.7,0,89.5,0,15.3,0,24.6,12.3,21.5,27.2-2.8,13-4.9,26.2-7,39.3-.6,3.8-1.8,5.1-5.7,5.1-23.2-.2-46.5,0-69.7-.2-3.9,0-5.7,1-6.2,5.1-.8,6.3-2,12.5-3.1,18.7-.7,3.6,2.3,4.7,4.4,5,4,.5,8.1.4,12.1-.1,4.7-.6,5.4-4.6,6.1-8.5,1.1-5.7,1.2-5.7,6.9-5.7,16,0,31.9,0,47.9,0,2.9,0,3.9.9,3.3,3.7-1.2,5.5-2.1,11.1-3.5,16.6-3,12.2-16.5,22.4-28.7,22-15.3-.5-30.6-.1-45.9-.1M232.7,110.9c2.7-.2,3.9-.7,4.4-3.2.9-4.9,2-9.8,2.7-14.7.1-1.1-1-2.9-2-3.6-4.7-3-9.8-2.5-14.8-.9-3.3,1-5.2,3.1-5.5,6.8-.2,2.9-1,5.7-1.5,8.6q-1.2,7,5.7,7c1.4,0,7.1.4,11.1,0"/>
    <path d="M505.4,187.7c-15.4,0-30.9,0-46.3,0-13.2,0-22.4-9.6-20.7-22.8,1.5-12,4-23.9,6.1-35.8,2.7-15.2,5-30.5,8.3-45.5,2.5-11.6,10.6-18.9,21.8-22.4,3.5-1.1,7.3-1.4,10.9-1.4,28.9-.1,57.8,0,86.7,0,16.2,0,25.3,10.9,22.4,27-2.4,13.4-4.9,26.7-7.1,40.1-.6,3.3-2,4.5-5.5,4.4-23.2-.2-46.5,0-69.7-.2-4,0-5.6,1.1-6.1,5.2-.7,5.8-1.8,11.5-3.1,17.1-.8,3.3.4,5.2,3.2,6.1,5.8,1.9,11.6,1.9,16.7-1.7,1.4-1,2-3.8,2.3-5.9.9-6.4.9-6.4,7.4-6.4,15.7,0,31.4,0,47.1,0,3.4,0,4.5.8,3.7,4.3-1.8,7.8-1.7,16-6.3,23.1-6.1,9.4-14.3,14.9-25.8,14.9-15.3,0-30.6,0-45.9,0M521.8,111h0c2.5,0,5-.1,7.5,0,2.6.1,3.8-.8,4.2-3.5.7-4.5,1.6-9.1,2.6-13.6.5-2.3-.2-3.7-2.3-4.8-5.2-2.6-10.4-2.5-15.5,0-1.6.8-3.5,2.3-3.9,3.8-1.3,4.7-1.8,9.5-2.8,14.3-.5,2.7.2,4,3.2,3.8,2.4-.2,4.7,0,7.1,0"/>
    <path d="M445.2,59.6c-14.4,0-28.8-.1-43.2,0-10.8.1-9.2-2.1-12.6,9-4.7,15.5-18.6,59.4-20.6,65.9-.4,0-.7,0-1.1,0-.2-1.4-.5-48.2-.3-70.2,0-3.6-1.1-4.8-4.7-4.7-16.8.2-33.5.2-50.3,0-3.7,0-5,1-5,4.9.1,39.2,0,78.4,0,117.6q0,5.5,5.5,5.5c29.6,0,59.2,0,88.7.1,3.7,0,5.2-1.6,6.2-4.6l42.1-123.4h-4.7"/>
    <path d="M1001.7,78.5c.5-2.7-.6-5.3-1.3-6.3-1.3-2.1-2.3-3.4-3.9-5.3-5-5.8-11.8-7-19-7-35.3,0-70.6,0-105.8,0l23.2,58.8-36.1-.6-17.8,104.7c19.4,0,37.1-.2,56.5-.2,1.9-10.7,3.7-21.5,5.9-32.2.2-1.1,3-2.2,4.5-2.3,15.8-.2,31.6.2,47.5-.3,5.1-.1,10.5-1.3,15.2-3.4,9.4-4.3,15.3-11.9,17.2-22.2l14-83.7ZM941.9,95.8c-1.7,8.8-3,17.7-4.6,26.5-1.9,10.9-3.8,21.8-5.9,32.6-.2,1.2-1.3,2.6-2.4,3.2-5.2,3.1-10.8,3.1-16.4,1.2-2.5-.9-3.7-2.5-3.1-5.8,2.6-13.3,4.7-26.7,7.1-40,1.2-6.9,2.4-13.7,3.8-20.6.3-1.3,1.7-2.7,2.7-3.5,3.1-2.4,5.2-1.9,8.1-2.6,2.4.3,3.9.4,5.3.7,5.4,1.1,6.3,2.8,5.3,8.1"/>
    <path d="M818.6,117.4l-30.4-.5,40.5-55.7c0-1.2-.6-1.9-2.7-1.9-17.2.1-34.3,0-51.5,0-2.4,0-3.3.9-3.7,3.1l-16.4,91.8c-.2,1.1-.9,2.3-1.7,2.9-4.5,3.5-13.9,3.9-18.4.6-.9-.7-1.8-2.4-1.8-3.6,0-.2,0-.4,0-.5l16.3-91.3c.2-2.2-.8-3.3-3.8-3.2-7.3.3-14.5,0-21.8,0-11.1,0-22.2,0-33.3,0-1.9,0-3.6-.2-4.1,2.5l-17.9,105.3c0,1.2.1,2.4.3,3.6,1.8,10.7,9.9,16.7,20.8,16.8h114.9s14.5-70.2,14.5-70.2Z"/>
  </g>
  <g>
    <path d="M1001.2,221.8c-9.7,0-17.6-7.9-17.6-17.6s7.9-17.6,17.6-17.6,17.6,7.9,17.6,17.6-7.9,17.6-17.6,17.6ZM1001.2,189c-8.4,0-15.2,6.8-15.2,15.2s6.8,15.2,15.2,15.2,15.2-6.8,15.2-15.2-6.8-15.2-15.2-15.2Z"/>
    <g>
      <path d="M1002.3,209h-2.5v-6.8c0-.7,0-1.6,0-2.4h0c-.1.7-.3,1.2-.4,1.5l-2.7,7.8h-2.1l-2.7-7.7c0-.2-.2-.7-.4-1.6h0c0,1.1.1,2.1.1,3v6.3h-2.3v-11.4h3.8l2.3,6.8c.2.5.3,1.1.4,1.6h0c.1-.6.3-1.2.5-1.6l2.3-6.8h3.7v11.4Z"/>
      <path d="M1014.5,209h-3l-1.8-2.9c-.1-.2-.3-.4-.4-.6-.1-.2-.2-.3-.4-.5-.1-.1-.3-.2-.4-.3-.1,0-.3,0-.4,0h-.7v4.4h-2.6v-11.4h4.1c2.8,0,4.2,1,4.2,3.1s0,.8-.2,1.1c-.1.3-.3.6-.5.9s-.5.5-.8.7c-.3.2-.7.4-1.1.5h0c.2,0,.3.2.5.3.2.1.3.3.5.4.1.2.3.3.4.5.1.2.3.4.4.5l2.2,3.4ZM1007.5,199.4v3.2h1.1c.6,0,1-.2,1.3-.5.3-.3.5-.7.5-1.2,0-1-.6-1.5-1.8-1.5h-1.2Z"/>
    </g>
  </g>
</svg>